<svg width="21" height="20" viewBox="0 0 21 20" fill="none" xmlns="http://www.w3.org/2000/svg">
<path id="Vector" d="M14.4758 12.5786H13.5724L13.2522 12.2699C14.3729 10.9663 15.0475 9.27387 15.0475 7.43282C15.0475 3.32762 11.7199 0 7.6147 0C3.5095 0 0.181885 3.32762 0.181885 7.43282C0.181885 11.538 3.5095 14.8656 7.6147 14.8656C9.45576 14.8656 11.1482 14.191 12.4518 13.0703L12.7605 13.3905V14.2939L18.4781 20L20.1819 18.2962L14.4758 12.5786ZM7.6147 12.5786C4.76736 12.5786 2.46891 10.2802 2.46891 7.43282C2.46891 4.58548 4.76736 2.28702 7.6147 2.28702C10.462 2.28702 12.7605 4.58548 12.7605 7.43282C12.7605 10.2802 10.462 12.5786 7.6147 12.5786Z" fill="black" fill-opacity="0.4"/>
</svg>
